<svg width="24" height="24" xmlns="http://www.w3.org/2000/svg" data-name="Layer 1">

 <g>
  <title>Layer 1</title>
  <path fill="#b2b2b2" id="svg_1" d="m6,7.5l0,9c0,0.276 -0.224,0.5 -0.5,0.5s-0.5,-0.224 -0.5,-0.5l0,-9c0,-0.276 0.224,-0.5 0.5,-0.5s0.5,0.224 0.5,0.5zm18,0l0,9c0,2.481 -2.019,4.5 -4.5,4.5l-15,0c-2.481,0 -4.5,-2.019 -4.5,-4.5l0,-9c0,-2.481 2.019,-4.5 4.5,-4.5l15,0c2.481,0 4.5,2.019 4.5,4.5zm-1,0c0,-1.93 -1.57,-3.5 -3.5,-3.5l-15,0c-1.93,0 -3.5,1.57 -3.5,3.5l0,9c0,1.93 1.57,3.5 3.5,3.5l15,0c1.93,0 3.5,-1.57 3.5,-3.5l0,-9z"/>
 </g>
</svg>