<svg width="24" height="24" xmlns="http://www.w3.org/2000/svg" data-name="Layer 1">

 <g>
  <title>Layer 1</title>
  <path fill="#999999" id="svg_1" d="m15.5,24l-7,0c-2.481,0 -4.5,-2.019 -4.5,-4.5l0,-15c0,-2.481 2.019,-4.5 4.5,-4.5l7,0c2.481,0 4.5,2.019 4.5,4.5l0,15c0,2.481 -2.019,4.5 -4.5,4.5zm-7,-23c-1.93,0 -3.5,1.57 -3.5,3.5l0,15c0,1.93 1.57,3.5 3.5,3.5l7,0c1.93,0 3.5,-1.57 3.5,-3.5l0,-15c0,-1.93 -1.57,-3.5 -3.5,-3.5l-7,0zm5.5,19.5c0,-0.276 -0.224,-0.5 -0.5,-0.5l-3,0c-0.276,0 -0.5,0.224 -0.5,0.5s0.224,0.5 0.5,0.5l3,0c0.276,0 0.5,-0.224 0.5,-0.5z"/>
 </g>
</svg>